{
  "accessors": [
    {
      "bufferView": 2,
      "componentType": 5126,
      "count": 14168,
      "max": [
        2.8960049152374268,
        6.5205979347229,
        0.8470636010169983
      ],
      "min": [
        -2.936615467071533,
        2.1755855083465576,
        -1.4713677167892456
      ],
      "type": "VEC3"
    },
    {
      "bufferView": 2,
      "byteOffset": 170016,
      "componentType": 5126,
      "count": 14168,
      "max": [
        0.999949038028717,
        0.979840874671936,
        0.9999644160270691
      ],
      "min": [
        -0.9999339580535889,
        -0.9996890425682068,
        -0.9997245073318481
      ],
      "type": "VEC3"
    },
    {
      "bufferView": 3,
      "componentType": 5126,
      "count": 14168,
      "max": [
        0.9999970197677612,
        0.9973319172859192,
        0.9999630451202393,
        1.0
      ],
      "min": [
        -0.9999935626983643,
        -0.9944422841072083,
        -0.9999662637710571,
        -1.0
      ],
      "type": "VEC4"
    },
    {
      "bufferView": 1,
      "componentType": 5126,
      "count": 14168,
      "max": [
        0.9880318641662598,
        0.9962679147720337
      ],
      "min": [
        0.00746762752532959,
        0.009002923965454102
      ],
      "type": "VEC2"
    },
    {
      "bufferView": 0,
      "componentType": 5125,
      "count": 80376,
      "type": "SCALAR"
    }
  ],
  "asset": {
    "extras": {
      "author": "pika459 (https://sketchfab.com/pika459)",
      "license": "CC-BY-4.0 (http://creativecommons.org/licenses/by/4.0/)",
      "source": "https://sketchfab.com/3d-models/cabrerazapata-esteban-gothicdress-a926d511eafc4c84b9fe09fc6ac1af8c",
      "title": "CabreraZapata_Esteban_GothicDress"
    },
    "generator": "Sketchfab-15.22.0",
    "version": "2.0"
  },
  "bufferViews": [
    {
      "buffer": 0,
      "byteLength": 321504,
      "name": "floatBufferViews",
      "target": 34963
    },
    {
      "buffer": 0,
      "byteLength": 113344,
      "byteOffset": 321504,
      "byteStride": 8,
      "name": "floatBufferViews",
      "target": 34962
    },
    {
      "buffer": 0,
      "byteLength": 340032,
      "byteOffset": 434848,
      "byteStride": 12,
      "name": "floatBufferViews",
      "target": 34962
    },
    {
      "buffer": 0,
      "byteLength": 226688,
      "byteOffset": 774880,
      "byteStride": 16,
      "name": "floatBufferViews",
      "target": 34962
    }
  ],
  "buffers": [
    {
      "byteLength": 1001568,
      "uri": "scene.bin"
    }
  ],
  "images": [
    {
      "uri": "textures/Dress_Fabric_baseColor.png"
    },
    {
      "uri": "textures/Dress_Fabric_metallicRoughness.png"
    },
    {
      "uri": "textures/Dress_Fabric_normal.png"
    }
  ],
  "materials": [
    {
      "alphaMode": "BLEND",
      "doubleSided": true,
      "name": "Dress_Fabric",
      "normalTexture": {
        "index": 2
      },
      "occlusionTexture": {
        "index": 1
      },
      "pbrMetallicRoughness": {
        "baseColorTexture": {
          "index": 0
        },
        "metallicRoughnessTexture": {
          "index": 1
        }
      }
    }
  ],
  "meshes": [
    {
      "name": "dress_low_Dress_Fabric_0",
      "primitives": [
        {
          "attributes": {
            "NORMAL": 1,
            "POSITION": 0,
            "TANGENT": 2,
            "TEXCOORD_0": 3
          },
          "indices": 4,
          "material": 0,
          "mode": 4
        }
      ]
    }
  ],
  "nodes": [
    {
      "children": [
        1
      ],
      "matrix": [
        1.0,
        0.0,
        0.0,
        0.0,
        0.0,
        2.220446049250313e-16,
        -1.0,
        0.0,
        0.0,
        1.0,
        2.220446049250313e-16,
        0.0,
        0.0,
        0.0,
        0.0,
        1.0
      ],
      "name": "Sketchfab_model"
    },
    {
      "children": [
        2
      ],
      "matrix": [
        0.009999999776482582,
        0.0,
        0.0,
        0.0,
        0.0,
        0.0,
        0.009999999776482582,
        0.0,
        0.0,
        -0.009999999776482582,
        0.0,
        0.0,
        0.0,
        0.0,
        0.0,
        1.0
      ],
      "name": "0192f79282b144aaaa1b919a6106d119.fbx"
    },
    {
      "children": [
        3
      ],
      "name": "RootNode"
    },
    {
      "children": [
        4
      ],
      "name": "dress_low"
    },
    {
      "mesh": 0,
      "name": "dress_low_Dress_Fabric_0"
    }
  ],
  "samplers": [
    {
      "magFilter": 9729,
      "minFilter": 9987,
      "wrapS": 10497,
      "wrapT": 10497
    }
  ],
  "scene": 0,
  "scenes": [
    {
      "name": "Sketchfab_Scene",
      "nodes": [
        0
      ]
    }
  ],
  "textures": [
    {
      "sampler": 0,
      "source": 0
    },
    {
      "sampler": 0,
      "source": 1
    },
    {
      "sampler": 0,
      "source": 2
    }
  ]
}
